<svg width="36" height="36" viewBox="0 0 36 36" fill="none" xmlns="http://www.w3.org/2000/svg">
<path d="M15.8947 32.2207L3.52557 24.9617C3.3316 24.8478 3.21217 24.6396 3.21171 24.4143L3.17684 10.1317C3.17616 9.9004 3.30083 9.68715 3.50232 9.57446L15.5339 2.84415C15.8434 2.67089 15.9514 2.27731 15.7739 1.96966L14.8202 0.317592C14.6468 0.0168013 14.2648 -0.088566 13.9621 0.0808004L0.325252 7.70892C0.128551 7.81886 0.00478646 8.02502 0 8.25062V8.25313L0.0437622 26.2409C0.044446 26.4663 0.163879 26.6748 0.357845 26.7886L15.9054 35.9129C16.1046 36.0297 16.3512 36.029 16.5495 35.9111L30.017 27.901C30.3161 27.7232 30.4166 27.3369 30.2424 27.0352L29.2888 25.3831C29.1119 25.0766 28.7197 24.974 28.4161 25.1546L16.5388 32.2188C16.3405 32.3368 16.0937 32.3374 15.8947 32.2207Z" fill="white"/>
<path d="M16.1826 15.5348C17.1568 15.5348 17.9463 16.3267 17.9463 17.3034C17.9463 18.2803 17.1568 19.0723 16.1826 19.0723C15.2085 19.0723 14.4189 18.2803 14.4189 17.3034C14.4189 16.3267 15.2085 15.5348 16.1826 15.5348Z" fill="white"/>
<path d="M30.6006 7.20469C31.5748 7.20469 32.3643 7.99667 32.3643 8.97333C32.3643 9.95021 31.5748 10.7422 30.6006 10.7422C29.6265 10.7422 28.8369 9.95021 28.8369 8.97333C28.8369 7.99667 29.6265 7.20469 30.6006 7.20469Z" fill="white"/>
<path d="M30.6006 18.0445C31.5748 18.0445 32.3643 18.8365 32.3643 19.8132C32.3643 20.7901 31.5748 21.582 30.6006 21.582C29.6265 21.582 28.8369 20.7901 28.8369 19.8132C28.8369 18.8365 29.6265 18.0445 30.6006 18.0445Z" fill="white"/>
<path d="M30.6006 12.6363C31.5748 12.6363 32.3643 13.4283 32.3643 14.405C32.3643 15.3819 31.5748 16.1738 30.6006 16.1738C29.6265 16.1738 28.8369 15.3819 28.8369 14.405C28.8369 13.4283 29.6265 12.6363 30.6006 12.6363Z" fill="white"/>
<path d="M21.249 1.78086C22.2232 1.78086 23.0127 2.57284 23.0127 3.5495C23.0127 4.52638 22.2232 5.31836 21.249 5.31836C20.2749 5.31836 19.4854 4.52638 19.4854 3.5495C19.4854 2.57284 20.2749 1.78086 21.249 1.78086Z" fill="white"/>
<path d="M25.9248 4.48985C26.899 4.48985 27.6885 5.28182 27.6885 6.25848C27.6885 7.23537 26.899 8.02734 25.9248 8.02734C24.9507 8.02734 24.1611 7.23537 24.1611 6.25848C24.1611 5.28182 24.9507 4.48985 25.9248 4.48985Z" fill="white"/>
<path d="M25.7813 9.98008C26.7554 9.98008 27.545 10.7721 27.545 11.7487C27.545 12.7256 26.7554 13.5176 25.7813 13.5176C24.8071 13.5176 24.0176 12.7256 24.0176 11.7487C24.0176 10.7721 24.8071 9.98008 25.7813 9.98008Z" fill="white"/>
<path d="M20.9834 12.7594C21.9576 12.7594 22.7471 13.5514 22.7471 14.528C22.7471 15.5049 21.9576 16.2969 20.9834 16.2969C20.0093 16.2969 19.2197 15.5049 19.2197 14.528C19.2197 13.5514 20.0093 12.7594 20.9834 12.7594Z" fill="white"/>
</svg>
